<svg width="40" height="40" viewBox="0 0 40 40" fill="none" xmlns="http://www.w3.org/2000/svg">
<g opacity="0.9">
<circle cx="20" cy="20" r="20" fill="black"/>
<path d="M12.0128 26.6437C12.9157 27.9354 16.846 28.9493 18.7022 26.5312C20.71 27.4916 24.0216 27.1939 26.7178 25.6904C27.0928 25.4813 27.4474 25.2175 27.6646 24.8471C28.155 24.0111 28.1667 22.8512 27.2721 21.1398C25.7804 17.4162 23.0977 14.1478 22.0146 12.8334C21.7922 12.6306 20.3734 12.3426 19.5082 12.0659C19.1261 11.9475 18.4145 11.869 17.5634 12.9906C17.1599 13.5223 15.327 14.8282 17.6526 15.7064C18.0129 15.7981 18.2778 15.9672 19.9215 15.6669C20.1356 15.6297 20.6701 15.6669 21.0467 16.328L21.8334 17.453C21.9066 17.5577 21.9541 17.6782 21.9686 17.8051C22.1065 19.0043 22.102 20.5055 22.7706 21.2657C21.738 20.519 19.0394 19.6321 17.0061 22.1557M12 20.7517C12.9666 19.8324 15.7681 18.3804 18.7328 20.4169" stroke="white" stroke-width="1.2" stroke-linecap="round" stroke-linejoin="round"/>
</g>
</svg>
