<svg width="24" height="24" viewBox="0 0 24 24" fill="none" xmlns="http://www.w3.org/2000/svg">
<path d="M5.9816 11.2462C5.89458 13.9687 9.10268 17.3243 12.1106 18.3792M5.9816 11.2462C5.67704 11.7689 2.56624 14.2627 2.51185 15.319C2.24828 17.4168 5.81234 21.3578 8.56037 21.4924C9.58659 21.638 11.01 19.9111 12.4529 18.6281C13.2476 17.9214 14.3929 17.7579 18.9773 16.6203C20.6409 16.3311 22.6395 13.4615 19.6767 11.0291M5.9816 11.2462C6.90982 9.045 8.5145 4.7897 11.6615 3.10928C12.9395 2.38315 16.2589 1.71458 19.5115 4.80677C20.6305 5.74787 22.5702 7.80934 20.7648 10.1845C19.5611 11.5873 17.7411 11.1812 17.5643 13.6073" stroke="white" stroke-width="2" stroke-linecap="round" stroke-linejoin="round"/>
</svg>
