<svg width="41" height="40" viewBox="0 0 41 40" fill="none" xmlns="http://www.w3.org/2000/svg">
<circle opacity="0.06" cx="20.5" cy="20" r="20" fill="black"/>
<g opacity="0.3">
<path d="M23.8333 24.1667H18" stroke="black" stroke-width="1.25" stroke-linecap="round" stroke-linejoin="round"/>
<path d="M23.833 20.8333H21.333" stroke="black" stroke-width="1.25" stroke-linecap="round" stroke-linejoin="round"/>
<path d="M27.5837 21.6667C27.5837 24.8094 27.5837 26.3808 26.5463 27.3571C25.509 28.3334 23.8394 28.3334 20.5003 28.3334H19.8564C17.1387 28.3334 15.7799 28.3334 14.8362 27.6686C14.5658 27.4781 14.3258 27.2522 14.1234 26.9977C13.417 26.1095 13.417 24.8306 13.417 22.2728V20.1516C13.417 17.6823 13.417 16.4476 13.8078 15.4615C14.436 13.8763 15.7646 12.6258 17.449 12.0345C18.4967 11.6667 19.8085 11.6667 22.4322 11.6667C23.9314 11.6667 24.681 11.6667 25.2797 11.8769C26.2422 12.2148 27.0013 12.9293 27.3603 13.8352C27.5837 14.3987 27.5837 15.1042 27.5837 16.5152V21.6667Z" stroke="black" stroke-width="1.25" stroke-linejoin="round"/>
<path d="M13.417 20.0001C13.417 18.466 14.6606 17.2223 16.1948 17.2223C16.7496 17.2223 17.4037 17.3195 17.9431 17.175C18.4224 17.0465 18.7968 16.6722 18.9252 16.1929C19.0697 15.6534 18.9726 14.9993 18.9726 14.4445C18.9726 12.9104 20.2162 11.6667 21.7503 11.6667" stroke="black" stroke-width="1.25" stroke-linecap="round" stroke-linejoin="round"/>
</g>
</svg>
