<svg width="45" height="21" viewBox="0 0 45 21" fill="none" xmlns="http://www.w3.org/2000/svg">
<path d="M33.8454 14.2357C33.8455 14.9003 33.8455 15.5381 33.8455 16.1962C33.2656 16.1962 32.6947 16.1962 32.1073 16.1962C32.1073 14.7235 32.1073 13.2619 32.1073 11.7628C32.2045 11.7628 32.3013 11.7628 32.3981 11.7628C33.636 11.7627 34.8739 11.7644 36.1117 11.7612C36.4472 11.7603 36.6059 11.6183 36.6225 11.3279C36.6413 10.9979 36.4729 10.832 36.0946 10.8313C34.8659 10.8289 33.6372 10.8322 32.4085 10.8334C32.3105 10.8335 32.2125 10.8334 32.1022 10.8334C32.1022 10.2408 32.1022 9.6771 32.1022 9.10217C32.1322 9.09315 32.1655 9.07425 32.1988 9.07436C33.5191 9.0787 34.8394 9.08352 36.1597 9.09218C36.3243 9.09326 36.4904 9.10536 36.6529 9.13023C37.9495 9.32865 38.6196 10.2862 38.3923 11.5943C38.2576 12.3695 37.8147 12.8964 37.089 13.2081C37.0061 13.2437 36.9223 13.2769 36.8048 13.3252C37.4178 14.2864 38.0213 15.2327 38.6481 16.2155C38.156 16.2155 37.6885 16.1681 37.2354 16.2272C36.6298 16.3061 36.2908 16.0838 36.0242 15.5579C35.6907 14.9003 35.2639 14.2886 34.8884 13.6509C34.7956 13.4933 34.6972 13.4197 34.5015 13.4297C33.8925 13.4608 33.8283 13.2849 33.8444 14.0741C33.8454 14.1191 33.845 14.164 33.8454 14.2357Z" fill="black"/>
<path d="M26.8314 9.08116C27.0756 9.0454 27.0605 9.18975 27.0604 9.33012C27.0594 10.8493 27.0599 12.3685 27.0604 13.8876C27.0605 13.9865 27.0628 14.0853 27.0659 14.1841C27.0728 14.4046 27.1883 14.5077 27.4144 14.507C28.0378 14.5053 28.6612 14.5051 29.2845 14.5119C29.483 14.5141 29.5694 14.4182 29.5844 14.2398C29.5911 14.1594 29.5885 14.0782 29.5882 13.9974C29.584 12.4512 29.5795 10.9051 29.575 9.35901C29.5748 9.27152 29.575 9.18403 29.575 9.083C30.1861 9.083 30.7686 9.083 31.3654 9.083C31.3706 9.15896 31.3797 9.22896 31.3797 9.29894C31.3788 10.9529 31.379 12.6069 31.3731 14.2609C31.3722 14.4938 31.3515 14.728 31.3209 14.9592C31.2135 15.7698 30.839 16.1862 30.0087 16.2131C28.8484 16.2508 27.683 16.2282 26.5235 16.1648C25.7824 16.1243 25.4395 15.7482 25.3122 15.0251C25.2687 14.7781 25.2404 14.5252 25.2395 14.2749C25.2333 12.5584 25.2362 10.8418 25.2362 9.0812C25.751 9.0812 26.2786 9.0812 26.8314 9.08116Z" fill="black"/>
<path d="M43.2066 10.7268C43.2066 10.17 43.2066 9.64015 43.2066 9.09097C43.7978 9.09097 44.3794 9.09097 44.9813 9.09097C44.9875 9.16829 44.999 9.24563 44.999 9.32298C44.9993 10.9767 45.0031 12.6304 44.9934 14.2841C44.9916 14.5968 44.9584 14.9135 44.8989 15.2208C44.7945 15.7601 44.4686 16.1405 43.8944 16.173C42.8809 16.2304 41.8642 16.2398 40.8487 16.2522C40.5576 16.2557 40.2627 16.2172 39.9748 16.1684C39.3759 16.0668 39.0628 15.772 38.966 15.1869C38.9047 14.8162 38.8785 14.4366 38.8755 14.0606C38.8625 12.425 38.8637 10.7892 38.8602 9.15354C38.8602 9.13649 38.8681 9.11943 38.8767 9.08405C39.4617 9.08405 40.051 9.08405 40.6657 9.08405C40.6657 9.18487 40.6657 9.2723 40.6657 9.35972C40.6657 10.9056 40.6652 12.4515 40.6658 13.9973C40.666 14.4894 40.6901 14.5118 41.191 14.5116C41.7409 14.5114 42.2908 14.5126 42.8408 14.51C43.1652 14.5085 43.2092 14.469 43.2097 14.1511C43.2112 13.0186 43.208 11.8862 43.2066 10.7268Z" fill="black"/>
<path d="M16.9191 9.83369C17.7544 8.5527 18.9225 7.83452 20.4522 7.71203C21.4499 7.63214 22.4145 7.76916 23.2917 8.27094C23.6112 8.45372 23.8943 8.69774 24.2258 8.93674C23.7549 9.43039 23.3258 9.88014 22.8765 10.3511C22.194 9.72029 21.3989 9.44942 20.4814 9.53599C19.9723 9.58403 19.5244 9.77172 19.1392 10.098C18.3144 10.7968 18.0421 12.1062 18.5136 13.146C18.811 13.802 19.2986 14.2687 20.0084 14.4839C20.695 14.6921 21.3839 14.6163 22.0938 14.449C22.0938 15.0911 22.0938 15.7066 22.0938 16.3248C20.7257 16.8526 18.4884 16.235 17.3965 15.0241C16.1713 13.6652 15.9702 11.535 16.9191 9.83369Z" fill="black"/>
<path d="M29.1664 6.00098C29.2258 5.99604 29.2853 5.99109 29.3854 6.00232C29.5171 6.02322 29.6083 6.03358 29.6992 6.03178C30.4945 6.01603 31.2897 5.98564 32.0849 5.98466C32.7518 5.98384 33.4188 6.01606 34.0857 6.03587C34.1221 6.03695 34.1578 6.05852 34.2684 6.09543C34.1481 6.12084 34.1079 6.13454 34.0671 6.13717C33.485 6.17456 32.899 6.18069 32.3216 6.25329C31.312 6.38024 30.298 6.50258 29.3036 6.7092C27.8894 7.00307 26.5321 7.48649 25.227 8.10119C25.0314 8.1933 24.8438 8.26253 24.6344 8.15394C24.6344 8.15394 24.6442 8.14904 24.6393 8.13396C24.5919 8.07373 24.5546 8.022 24.506 7.98445C23.9395 7.54719 23.295 7.25581 22.6107 7.05479C22.3506 6.97835 22.0683 6.9741 21.7961 6.93695C21.7701 6.93704 21.744 6.93712 21.6921 6.91128C21.2159 6.74112 20.7592 6.8548 20.3053 6.85634C20.2883 6.8564 20.2713 6.89384 20.2543 6.91386C20.2287 6.92154 20.2031 6.92922 20.1396 6.92313C19.8156 6.89089 19.5296 6.87242 19.2435 6.85394C19.2435 6.85394 19.2507 6.85205 19.2477 6.83629C19.0376 6.49335 18.8089 6.18848 18.4172 6.05241C18.4172 6.05241 18.4256 6.03554 18.4215 6.02517C18.1976 5.86519 17.9778 5.71558 17.758 5.56597C17.758 5.56597 17.7684 5.55348 17.7622 5.54128C17.3295 5.31284 16.924 5.02775 16.472 4.89563C15.6887 4.66665 14.8795 4.51684 14.0748 4.36654C13.7778 4.31106 13.4629 4.34801 13.1561 4.34281C13.1306 4.34418 13.1051 4.34556 13.0533 4.32228C12.9767 4.28245 12.9267 4.25476 12.8763 4.25394C11.5511 4.23256 10.234 4.29894 8.93997 4.6111C8.87319 4.62721 8.79884 4.61317 8.72801 4.61317C8.76735 4.52883 8.80977 4.49242 8.85865 4.47949C9.78135 4.23531 10.7053 3.99568 11.628 3.75146C12.6658 3.47677 13.7301 3.41789 14.7956 3.39374C15.3882 3.38031 15.9823 3.41797 16.5753 3.44253C17.6955 3.48893 18.7766 3.7291 19.831 4.09434C20.0683 4.17652 20.3044 4.26185 20.5411 4.34574C20.5411 4.34574 20.5349 4.35041 20.5399 4.36562C20.8196 4.54783 21.0943 4.71483 21.369 4.88182C21.369 4.88182 21.3614 4.89592 21.3672 4.90376C21.392 4.91737 21.4109 4.92314 21.4299 4.9289C21.4299 4.9289 21.4219 4.945 21.4252 4.95658C21.5006 5.01164 21.5726 5.05513 21.6446 5.09862C21.6446 5.09862 21.6371 5.1062 21.6426 5.11666C21.667 5.1336 21.6858 5.14008 21.7046 5.14656C21.7046 5.14656 21.6823 5.1529 21.6926 5.16858C22.0745 5.61784 22.5947 5.78611 23.1235 5.91769C23.447 5.99821 23.7851 6.03822 24.1191 6.05964C24.6252 6.09209 25.1333 6.09251 25.6406 6.10654C25.9197 6.10332 26.1987 6.1001 26.5222 6.1126C27.3924 6.11387 28.2181 6.10059 29.0436 6.08146C29.0852 6.0805 29.1255 6.02897 29.1664 6.00098Z" fill="black"/>
<path d="M15.188 10.7298C14.8122 10.73 14.4632 10.7416 14.1154 10.7261C13.9068 10.7168 13.8523 10.7831 13.8536 10.9861C13.8637 12.5958 13.8616 14.2055 13.8627 15.8153C13.863 16.2252 13.8621 16.2252 13.4411 16.2246C13.0284 16.224 12.6152 16.2109 12.2032 16.2278C11.9621 16.2376 11.887 16.1619 11.8883 15.9233C11.8976 14.2867 11.8933 12.6499 11.8934 11.0132C11.8934 10.9332 11.8934 10.8531 11.8934 10.7273C11.496 10.7273 11.115 10.727 10.734 10.7274C10.0208 10.7281 10.0203 10.7282 10.0178 10.0251C10.0166 9.70249 10.0176 9.37987 10.0176 9.02928C10.137 9.02296 10.2344 9.01334 10.3318 9.0133C12.0376 9.01273 13.7434 9.01843 15.4492 9.00837C15.7153 9.0068 15.8043 9.08547 15.7897 9.34523C15.7695 9.70387 15.7651 10.0657 15.79 10.4237C15.8083 10.6864 15.7046 10.7608 15.4627 10.7316C15.3814 10.7217 15.2978 10.7299 15.188 10.7298Z" fill="black"/>
<path d="M21.0333 20.3205C20.9522 20.3216 20.8935 20.3216 20.766 20.3216C20.865 20.2597 20.9045 20.2276 20.9497 20.208C22.0749 19.7184 22.7331 18.8497 22.8034 17.6718C22.8856 16.2957 22.8226 14.9114 22.8226 13.5067C22.0176 13.5067 21.2061 13.5067 20.3743 13.5067C20.3743 12.9503 20.3743 12.4172 20.3743 11.8679C21.7382 11.8679 23.1081 11.8679 24.5105 11.8679C24.5105 12.1251 24.5106 12.3821 24.5105 12.6391C24.5099 13.879 24.4873 15.1194 24.5135 16.3588C24.557 18.4152 23.2425 20.062 21.0333 20.3205Z" fill="black"/>
<path d="M5.94494 9.00508C6.94409 9.00551 7.91576 9.01067 8.88732 9.00268C9.10812 9.00086 9.20639 9.05901 9.18562 9.29191C9.16653 9.50592 9.17518 9.72337 9.18632 9.93857C9.19552 10.1163 9.11943 10.1777 8.94458 10.1753C8.36726 10.1676 7.78965 10.1757 7.21249 10.163C6.76964 10.1533 6.51019 10.2188 6.48546 10.7078C6.4825 10.7664 6.36211 10.8668 6.2951 10.8676C5.35113 10.8795 4.40697 10.8763 3.46288 10.8801C3.3057 10.8807 3.26642 10.8031 3.25367 10.6632C3.22171 10.3124 3.0883 10.1846 2.72789 10.1783C2.12311 10.1677 1.5178 10.1636 0.913179 10.177C0.666664 10.1824 0.586891 10.0974 0.608217 9.86396C0.626137 9.66782 0.626223 9.46741 0.607105 9.27143C0.585745 9.05249 0.670351 8.99881 0.885169 8.99985C2.56256 9.008 4.24 9.00476 5.94494 9.00508Z" fill="black"/>
<path d="M20.8353 3.67764C20.0273 2.51251 20.574 0.997729 21.8834 0.723729C22.7916 0.533681 23.629 0.956848 23.9662 1.77614C24.311 2.61403 24.0077 3.65982 23.2899 4.10816C22.5187 4.58984 21.5589 4.45466 20.9198 3.77417C20.895 3.74772 20.8718 3.71977 20.8353 3.67764Z" fill="black"/>
<path d="M20.3054 18.5956C20.3054 18.5956 20.2886 18.6096 20.2557 18.6082C20.1374 18.6347 20.0513 18.6611 19.9665 18.6908C19.265 18.9366 18.5719 19.2092 17.8597 19.4202C17.3665 19.5664 16.8498 19.6438 16.3389 19.7237C15.6583 19.8302 14.9734 19.9105 14.2895 19.9957C14.2632 19.9989 14.2285 19.936 14.1977 19.9038C14.4337 19.8188 14.6698 19.7338 14.9444 19.6415C15.6215 19.4979 16.1846 19.1997 16.7253 18.8536C16.7307 18.8502 16.7294 18.8367 16.7313 18.828C16.7313 18.828 16.7435 18.8134 16.7741 18.8141C17.0501 18.6482 17.2955 18.4817 17.5408 18.3152C17.5408 18.3152 17.5486 18.3286 17.5634 18.3268C17.7182 18.2037 17.858 18.0824 17.9978 17.961C17.9978 17.961 17.9965 17.9574 18.0151 17.9566C18.054 17.9328 18.0745 17.9098 18.095 17.8867C18.095 17.8867 18.097 17.8934 18.1127 17.8905C18.2128 17.8032 18.2972 17.7187 18.3817 17.6343C18.3817 17.6343 18.3811 17.6335 18.3987 17.6319C18.4422 17.5972 18.468 17.564 18.4939 17.5309C18.4939 17.5309 18.4926 17.5267 18.5115 17.5251C18.5477 17.4987 18.5649 17.4738 18.5821 17.449C18.5821 17.449 18.5855 17.4553 18.6008 17.4542C18.6485 17.4065 18.6808 17.3598 18.713 17.3131C18.713 17.3131 18.7114 17.3099 18.73 17.3084C18.7638 17.2815 18.779 17.2562 18.7941 17.2308C18.7993 17.2397 18.8045 17.2486 18.8199 17.2448C18.8451 17.2035 18.8601 17.175 18.875 17.1464C18.875 17.1464 18.8763 17.1479 18.8953 17.1446C19.039 17.1256 19.169 17.0798 19.2875 17.0998C19.6974 17.1687 20.0959 17.3294 20.5238 17.2208C20.584 17.2208 20.6442 17.2207 20.7351 17.2451C21.0875 17.2632 21.4096 17.2474 21.731 17.2566C21.8166 17.2591 21.9 17.3381 21.9844 17.3819C21.9844 17.3819 21.977 17.3735 21.9593 17.3782C21.8946 17.4516 21.8476 17.5203 21.8006 17.5891C21.8006 17.5891 21.7955 17.582 21.7811 17.5839C21.7367 17.6293 21.7068 17.6728 21.6768 17.7163C21.6768 17.7163 21.6705 17.7319 21.6443 17.7351C21.5728 17.782 21.5275 17.8257 21.4821 17.8695C21.4821 17.8695 21.4781 17.8708 21.4605 17.8694C21.3836 17.9243 21.3243 17.9805 21.265 18.0367C21.265 18.0367 21.251 18.0383 21.2418 18.0353C21.2206 18.0481 21.2086 18.064 21.1965 18.0798C21.1965 18.0798 21.1958 18.0743 21.1784 18.0734C21.0611 18.1449 20.9612 18.2172 20.8613 18.2895C20.8613 18.2895 20.8605 18.2843 20.8421 18.2854C20.6509 18.3895 20.4781 18.4925 20.3054 18.5956Z" fill="black"/>
<path d="M12.1048 5.56342C12.1475 5.56279 12.1903 5.56216 12.2617 5.58677C12.5314 5.64362 12.7718 5.681 13.0136 5.70587C14.1 5.81762 15.1454 6.07166 16.1308 6.54575C16.3479 6.6502 16.577 6.73072 16.8005 6.82226C16.8005 6.82226 16.7894 6.8398 16.7987 6.84811C16.8413 6.86512 16.8746 6.87383 16.9078 6.88253C16.9078 6.88253 16.9007 6.88761 16.9065 6.90205C16.954 6.96766 16.9956 7.01883 17.0562 7.09345C16.9692 7.09345 16.915 7.10355 16.8662 7.09184C16.4879 7.00109 16.114 6.88918 15.7321 6.81784C15.4281 6.76105 15.1148 6.7522 14.8057 6.72207C14.7623 6.71918 14.719 6.7163 14.6477 6.68648C14.2724 6.61168 13.9262 6.55239 13.5775 6.51962C13.3108 6.49457 13.0409 6.50306 12.7724 6.49664C12.7461 6.49743 12.7197 6.49822 12.6658 6.47343C12.3056 6.41751 11.9735 6.36653 11.6406 6.36095C10.8647 6.34796 10.0881 6.34552 9.3124 6.36281C9.03329 6.36904 8.75578 6.44403 8.47754 6.48764C8.43531 6.49528 8.39307 6.50291 8.31147 6.49505C7.5348 6.56628 6.79744 6.65262 6.06023 6.74015C5.94377 6.75398 5.82796 6.77317 5.71186 6.78988C5.70677 6.7667 5.70168 6.74352 5.69659 6.72034C5.73237 6.70225 5.7663 6.67809 5.80421 6.66698C6.64077 6.42169 7.47076 6.1502 8.31724 5.94378C8.85003 5.81386 9.40832 5.78613 9.95378 5.7037C10.1603 5.6725 10.3628 5.61642 10.5672 5.57168C10.6268 5.56598 10.6865 5.56027 10.7869 5.57086C11.2534 5.57924 11.6791 5.57133 12.1048 5.56342Z" fill="black"/>
<path d="M6.54411 12.7759C6.54414 13.3758 6.54414 13.3767 5.95093 13.3775C5.1365 13.3784 4.322 13.3726 3.50767 13.3817C3.30297 13.384 3.23629 13.3202 3.24496 13.1185C3.25997 12.7692 3.25408 12.4186 3.2433 12.069C3.23831 11.9068 3.29299 11.8474 3.46103 11.8466C4.38472 11.842 5.3084 11.8311 6.23201 11.8179C6.45619 11.8147 6.57001 11.8875 6.54763 12.1304C6.52877 12.3351 6.54395 12.5428 6.54411 12.7759Z" fill="black"/>
<path d="M32.5183 4.21355C33.4501 4.38713 34.3407 4.61619 35.2005 4.94961C31.7831 4.23398 28.3402 4.13085 24.8743 4.47115C27.3989 3.91079 29.9361 3.74556 32.5183 4.21355Z" fill="black"/>
<path d="M0.0747108 13.8079C0.0401921 13.4813 0.0197127 13.1624 0.0201586 12.8435C0.0202128 12.8045 0.13131 12.7341 0.192887 12.732C0.522019 12.7206 0.85182 12.7294 1.18128 12.7244C1.32533 12.7222 1.37158 12.7847 1.37077 12.9198C1.36646 13.6378 1.36423 14.356 1.36984 15.074C1.37124 15.2525 1.29643 15.3192 1.12334 15.3053C1.0597 15.3002 0.994446 15.2984 0.931327 15.3061C0.731043 15.3306 0.657361 15.2592 0.663817 15.0517C0.678863 14.5679 0.668616 14.0834 0.654217 13.5839C0.576425 13.9422 0.286737 13.7572 0.0747108 13.8079Z" fill="black"/>
<path d="M9.13916 13.4812C9.1369 14.0131 9.12133 14.5248 9.13993 15.0354C9.15117 15.3439 8.9549 15.2938 8.76336 15.3084C8.54324 15.3252 8.4596 15.26 8.46146 15.0281C8.46692 14.3472 8.44718 13.6662 8.43623 12.9852C8.43356 12.8191 8.4761 12.7123 8.68319 12.7212C8.97531 12.7338 9.26898 12.734 9.56099 12.7197C9.76132 12.7099 9.81693 12.7913 9.80496 12.9718C9.7937 13.1414 9.80669 13.3125 9.80374 13.4829C9.8011 13.6352 9.85987 13.8199 9.57981 13.8051C9.36629 13.7939 9.13507 13.8436 9.18831 13.5079C9.19192 13.4851 9.17463 13.4592 9.16706 13.4347C9.15813 13.4433 9.14919 13.4519 9.13916 13.4812Z" fill="black"/>
<path d="M7.1143 14.2882C7.11411 13.8323 7.11915 13.4032 7.11124 12.9744C7.1079 12.7939 7.16694 12.7154 7.36278 12.7196C8.11577 12.7357 7.96635 12.6308 7.97534 13.3037C7.98301 13.8772 7.97374 14.451 7.98631 15.0243C7.99085 15.2316 7.92499 15.3134 7.70588 15.3078C7.02236 15.2906 7.11601 15.381 7.11355 14.7453C7.11299 14.6019 7.114 14.4585 7.1143 14.2882Z" fill="black"/>
<path d="M2.64628 13.7485C2.64689 14.2059 2.64258 14.6365 2.6505 15.0668C2.65369 15.2402 2.58775 15.3087 2.40974 15.3047C1.75557 15.2899 1.83379 15.3869 1.83363 14.7552C1.83348 14.1902 1.84152 13.6249 1.82476 13.0604C1.81742 12.8132 1.87578 12.7033 2.1551 12.7158C2.73745 12.7418 2.63158 12.6576 2.64528 13.2103C2.6495 13.3806 2.64615 13.5511 2.64628 13.7485Z" fill="black"/>
<path d="M37.002 18.9022C36.926 18.9123 36.871 18.9158 36.8163 18.9132C36.7908 18.9121 36.7659 18.8992 36.7147 18.8837C36.7147 18.5091 36.7147 18.1301 36.7147 17.6733C36.5171 17.9756 36.3636 18.2105 36.176 18.4973C36.0115 18.2376 35.8768 18.0251 35.7421 17.8125C35.7234 17.8169 35.7047 17.8214 35.686 17.8258C35.686 18.1845 35.686 18.5432 35.686 18.9122C35.5617 18.9122 35.4724 18.9122 35.3633 18.9122C35.3633 18.311 35.3633 17.7133 35.3633 17.1025C35.5546 17.0176 35.6844 17.0861 35.7858 17.2783C35.9031 17.5007 36.0429 17.7118 36.1932 17.9613C36.3236 17.7399 36.4559 17.5483 36.5533 17.3408C36.651 17.1327 36.7784 17.0271 37.0231 17.1094C37.0231 17.6994 37.0231 18.2963 37.002 18.9022Z" fill="black"/>
<path d="M20.531 4.33072C20.3044 4.26185 20.0683 4.17652 19.831 4.09434C18.7766 3.7291 17.6955 3.48893 16.5753 3.44253C15.9823 3.41797 15.3882 3.38031 14.7956 3.39374C13.7301 3.41789 12.6658 3.47677 11.628 3.75146C10.7053 3.99568 9.78135 4.23531 8.85865 4.47949C8.80977 4.49242 8.76735 4.52883 8.72801 4.61317C8.79884 4.61317 8.87319 4.62721 8.93997 4.6111C10.234 4.29894 11.5511 4.23256 12.8763 4.25394C12.9267 4.25476 12.9767 4.28245 13.0349 4.31645C12.084 4.37905 11.1184 4.36937 10.168 4.48265C9.3322 4.58229 8.51348 4.8197 7.6871 4.99581C7.59115 5.01626 7.49458 5.03386 7.37486 5.00768C7.51999 4.94282 7.6636 4.87444 7.81047 4.81363C10.7314 3.60422 13.7644 3.07439 16.9313 3.38904C18.1753 3.51264 19.3951 3.74388 20.531 4.33072ZM8.3715 4.65775C8.35309 4.67901 8.33467 4.70027 8.31626 4.72154C8.34916 4.723 8.38207 4.72447 8.41497 4.72593C8.41025 4.70018 8.40553 4.67442 8.3715 4.65775ZM8.13734 4.77551C8.1418 4.76791 8.14625 4.76032 8.1507 4.75272C8.14339 4.75599 8.13609 4.75925 8.13734 4.77551Z" fill="black"/>
<path d="M24.6427 8.1702C24.8438 8.26253 25.0314 8.1933 25.227 8.10119C26.5321 7.48649 27.8894 7.00307 29.3036 6.7092C30.298 6.50258 31.312 6.38024 32.3216 6.25329C32.899 6.18069 33.485 6.17456 34.0671 6.13717C34.1079 6.13454 34.1481 6.12084 34.2684 6.09543C34.1578 6.05852 34.1221 6.03695 34.0857 6.03587C33.4188 6.01606 32.7518 5.98384 32.0849 5.98466C31.2897 5.98564 30.4945 6.01603 29.6992 6.03178C29.6083 6.03358 29.5171 6.02322 29.4076 6.00599C31.4849 5.91549 33.5811 5.82488 35.6673 6.14108C35.6998 6.146 35.732 6.15271 35.7567 6.10398C34.3464 6.20129 32.9314 6.25648 31.5268 6.40554C29.2892 6.64298 27.1533 7.26201 25.1263 8.22843C24.9537 8.31072 24.7924 8.38879 24.6427 8.1702Z" fill="black"/>
<path d="M27.4856 18.075C27.5545 18.0179 27.6199 17.9599 27.6916 17.951C27.8259 17.9344 27.9638 17.9462 28.1341 17.9462C28.1341 18.1044 28.1341 18.254 28.1341 18.4036C28.1341 18.5468 28.1341 18.6899 28.1341 18.8281C27.6215 19.0583 27.015 18.9801 26.7264 18.6529C26.4632 18.3545 26.4426 17.8088 26.6818 17.4687C26.933 17.1116 27.5074 16.978 28.0528 17.149C28.0528 17.2526 28.0528 17.3554 28.0528 17.4342C27.8178 17.4208 27.5976 17.3755 27.3874 17.4033C26.974 17.4578 26.7703 17.7896 26.8644 18.1947C26.9433 18.5345 27.3567 18.7728 27.7056 18.6393C27.7925 18.606 27.8146 18.4097 27.8484 18.3309C27.723 18.16 27.4739 18.3681 27.4856 18.075Z" fill="black"/>
<path d="M1.36968 11.2691C1.37016 11.5471 1.36489 11.7988 1.3712 12.0502C1.37474 12.1911 1.31555 12.2406 1.17567 12.2379C0.855095 12.2319 0.534217 12.2302 0.213705 12.2373C0.0616083 12.2406 -0.00984012 12.1902 0.00550317 12.036C0.0117039 11.9737 0.0143392 11.9092 0.00535161 11.8476C-0.025664 11.6349 0.0799307 11.5772 0.275469 11.5988C0.3734 11.6096 0.4736 11.6007 0.623389 11.6007C0.623389 11.3843 0.636858 11.1911 0.619873 11.0005C0.60004 10.7779 0.654862 10.6694 0.913419 10.6793C1.47096 10.7009 1.36177 10.6516 1.36968 11.2691Z" fill="black"/>
<path d="M8.4303 11.4289C8.43007 11.3304 8.42985 11.2587 8.42953 11.187C8.42714 10.6457 8.4269 10.6501 8.9688 10.6782C9.11808 10.686 9.18723 10.7361 9.18243 10.886C9.17698 11.0561 9.18877 11.2269 9.17874 11.3966C9.16824 11.5742 9.2202 11.6532 9.42268 11.6498C9.81823 11.6432 9.85482 11.6908 9.7935 12.08C9.78418 12.1391 9.69098 12.2281 9.63351 12.2305C9.28682 12.2445 8.93892 12.2445 8.59226 12.2299C8.53661 12.2276 8.44473 12.1321 8.43913 12.0733C8.41966 11.869 8.43078 11.6618 8.4303 11.4289Z" fill="black"/>
<path d="M7.11616 12.1061C7.11377 11.7052 7.11882 11.3287 7.10948 10.9525C7.10486 10.7665 7.15229 10.6748 7.36866 10.6782C8.09836 10.6896 7.95809 10.6186 7.97527 11.2556C7.98227 11.5154 7.9709 11.7756 7.97962 12.0352C7.98472 12.1873 7.92514 12.2457 7.77196 12.2379C7.61703 12.2299 7.46029 12.2464 7.30646 12.2313C7.24077 12.2249 7.18043 12.1658 7.11616 12.1061Z" fill="black"/>
<path d="M1.82909 11.9058C1.8289 11.5654 1.8351 11.2506 1.8261 10.9363C1.82099 10.7577 1.87512 10.6801 2.07417 10.6768C2.64252 10.6676 2.64312 10.6596 2.64632 11.2229C2.64791 11.5015 2.65651 11.7807 2.63825 12.0582C2.63408 12.1216 2.53748 12.2235 2.47429 12.2307C2.2766 12.2533 2.07454 12.239 1.84535 12.239C1.8392 12.1226 1.83416 12.0271 1.82909 11.9058Z" fill="black"/>
<path d="M10.543 5.56714C10.3628 5.61642 10.1603 5.6725 9.95378 5.7037C9.40832 5.78613 8.85003 5.81386 8.31724 5.94378C7.47076 6.1502 6.64077 6.42169 5.80421 6.66698C5.7663 6.67809 5.73237 6.70225 5.69659 6.72034C5.70168 6.74352 5.70677 6.7667 5.71186 6.78988C5.82796 6.77317 5.94377 6.75398 6.06023 6.74015C6.79744 6.65262 7.5348 6.56628 8.28997 6.49205C6.87307 6.63201 5.46194 6.868 4.10634 7.36823C3.97065 7.4183 3.81886 7.42641 3.72169 7.44499C4.20903 7.2343 4.73637 6.98432 5.28065 6.7771C5.84242 6.56323 6.41481 6.37126 6.99335 6.20606C7.56302 6.0434 8.14157 5.90146 8.72481 5.79617C9.31732 5.68921 9.92032 5.63814 10.543 5.56714ZM5.53389 6.87405C5.54079 6.86832 5.54882 6.86346 5.55427 6.85663C5.55954 6.85003 5.56215 6.8414 5.56593 6.83366C5.49062 6.83366 5.41531 6.83366 5.34 6.83366C5.34122 6.85147 5.34245 6.86928 5.34367 6.88709C5.39618 6.88709 5.44869 6.88709 5.53389 6.87405Z" fill="black"/>
<path d="M31.5022 18.3506C31.3976 18.1011 31.3006 17.8725 31.1867 17.6522C31.0921 17.469 30.9776 17.2957 30.8623 17.1017C31.0695 17.025 31.2236 17.0428 31.3326 17.2548C31.4341 17.4519 31.5563 17.6388 31.685 17.8565C31.8108 17.6562 31.9419 17.4841 32.0326 17.2936C32.1337 17.0812 32.2808 17.0329 32.5128 17.102C32.2186 17.6779 31.645 18.1514 31.866 18.9118C31.7204 18.9118 31.6255 18.9118 31.5024 18.9118C31.5024 18.7315 31.5024 18.5533 31.5022 18.3506Z" fill="black"/>
<path d="M14.1824 19.8968C14.2285 19.936 14.2632 19.9989 14.2895 19.9957C14.9734 19.9105 15.6583 19.8302 16.3389 19.7237C16.8498 19.6438 17.3665 19.5664 17.8597 19.4202C18.5719 19.2092 19.265 18.9366 19.9665 18.6908C20.0513 18.6611 20.1374 18.6347 20.2447 18.6086C19.385 19.0875 18.4366 19.3921 17.455 19.5732C16.3937 19.7691 15.3213 19.9078 14.2518 20.0586C14.0656 20.0849 13.8702 20.0433 13.679 20.0429C13.6384 20.0428 13.5977 20.0858 13.5538 20.0884C13.7583 20.0221 13.9627 19.9559 14.1824 19.8968Z" fill="black"/>
<path d="M13.1785 4.34917C13.4629 4.34801 13.7778 4.31106 14.0748 4.36654C14.8795 4.51684 15.6887 4.66665 16.472 4.89563C16.924 5.02775 17.3295 5.31284 17.7582 5.54833C16.3589 4.73562 14.8042 4.45745 13.1785 4.34917Z" fill="black"/>
<path d="M16.7904 6.80772C16.577 6.73072 16.3479 6.6502 16.1308 6.54575C15.1454 6.07166 14.1 5.81762 13.0136 5.70587C12.7718 5.681 12.5314 5.64362 12.282 5.59382C13.8697 5.64737 15.3861 6.00241 16.7904 6.80772Z" fill="black"/>
<path d="M8.50205 6.49242C8.7558 6.44403 9.03329 6.36904 9.3124 6.36281C10.0881 6.34552 10.8647 6.34796 11.6406 6.36095C11.9735 6.36653 12.3057 6.41751 12.6477 6.4652C11.4443 6.47778 10.2314 6.47186 9.01849 6.46963C8.85452 6.46933 8.69052 6.48755 8.50205 6.49242Z" fill="black"/>
<path d="M25.6165 6.10043C25.1333 6.09251 24.6252 6.09209 24.1191 6.05964C23.7851 6.03822 23.447 5.99821 23.1235 5.91769C22.5947 5.78611 22.0745 5.61784 21.7037 5.16489C22.6215 5.92041 23.7625 5.95564 24.8795 6.06594C25.1157 6.08927 25.3546 6.08558 25.6165 6.10043Z" fill="black"/>
<path d="M14.826 6.7294C15.1148 6.7522 15.4281 6.76105 15.7321 6.81784C16.114 6.88918 16.4879 7.00109 16.8662 7.09184C16.915 7.10355 16.9692 7.09345 17.0562 7.09345C16.9956 7.01883 16.954 6.96766 16.9085 6.89819C17.1496 7.0198 17.3946 7.1597 17.6395 7.2996C17.6301 7.30635 17.6208 7.3131 17.6114 7.31985C16.6897 7.12548 15.7681 6.93111 14.826 6.7294Z" fill="black"/>
<path d="M21.8153 6.94466C22.0683 6.9741 22.3506 6.97835 22.6107 7.05479C23.295 7.25581 23.9395 7.54719 24.506 7.98445C24.5546 8.022 24.5918 8.07373 24.6357 8.138C23.7972 7.54443 22.8749 7.1163 21.8153 6.94466Z" fill="black"/>
<path d="M29.1412 5.99614C29.1255 6.02897 29.0852 6.0805 29.0436 6.08146C28.2181 6.10059 27.3923 6.11387 26.5478 6.11659C27.3914 6.067 28.2537 6.02915 29.1412 5.99614Z" fill="black"/>
<path d="M16.7118 18.8305C16.7294 18.8368 16.7307 18.8502 16.7253 18.8536C16.1846 19.1997 15.6215 19.4979 14.9618 19.6346C15.5244 19.3678 16.1084 19.1004 16.7118 18.8305Z" fill="black"/>
<path d="M12.7949 6.50362C13.0409 6.50306 13.3108 6.49457 13.5775 6.51962C13.9262 6.55239 14.2725 6.61168 14.6289 6.67551C14.0312 6.63118 13.4243 6.57089 12.7949 6.50362Z" fill="black"/>
<path d="M20.2786 6.91861C20.2713 6.89384 20.2883 6.8564 20.3053 6.85634C20.7592 6.8548 21.2158 6.74113 21.6743 6.90329C21.2224 6.92194 20.7626 6.92265 20.2786 6.91861Z" fill="black"/>
<path d="M20.502 17.2143C20.096 17.3294 19.6974 17.1687 19.2875 17.0998C19.169 17.0798 19.039 17.1256 18.8945 17.144C18.9426 16.9878 19.0479 16.9626 19.2222 16.9989C19.6379 17.0853 20.0604 17.1402 20.502 17.2143Z" fill="black"/>
<path d="M21.9999 17.3725C21.9 17.3381 21.8166 17.2591 21.731 17.2566C21.4096 17.2474 21.0875 17.2632 20.7567 17.2519C21.1968 17.2143 21.6459 17.1945 22.1261 17.1733C22.0823 17.2484 22.0489 17.3057 21.9999 17.3725Z" fill="black"/>
<path d="M18.4255 6.06807C18.8089 6.18848 19.0376 6.49335 19.247 6.83987C18.9774 6.60072 18.7056 6.34222 18.4255 6.06807Z" fill="black"/>
<path d="M12.0827 5.5572C11.6791 5.57133 11.2534 5.57924 10.8092 5.57497C11.2139 5.55885 11.6373 5.55492 12.0827 5.5572Z" fill="black"/>
<path d="M21.3606 4.86623C21.0943 4.71483 20.8196 4.54783 20.5412 4.36201C20.809 4.51233 21.0806 4.68149 21.3606 4.86623Z" fill="black"/>
<path d="M19.2496 6.87059C19.5296 6.87242 19.8156 6.89089 20.1194 6.92091C19.9789 6.96203 19.8146 6.97433 19.6641 7.02557C19.4788 7.08867 19.3542 7.04048 19.2496 6.87059Z" fill="black"/>
<path d="M17.5221 18.3199C17.2955 18.4817 17.0501 18.6482 16.7837 18.8134C17.0096 18.6496 17.2565 18.4871 17.5221 18.3199Z" fill="black"/>
<path d="M17.7676 5.58076C17.9778 5.71558 18.1976 5.86519 18.4184 6.03405C18.2053 5.90071 17.9912 5.74813 17.7676 5.58076Z" fill="black"/>
<path d="M20.3247 18.5941C20.4781 18.4926 20.6508 18.3895 20.8443 18.2868C20.6913 18.389 20.5177 18.4908 20.3247 18.5941Z" fill="black"/>
<path d="M17.9802 17.9667C17.858 18.0824 17.7182 18.2037 17.5584 18.321C17.6798 18.202 17.8211 18.0872 17.9802 17.9667Z" fill="black"/>
<path d="M20.8803 18.2872C20.9612 18.2172 21.061 18.1449 21.1809 18.0746C21.1004 18.1461 20.9998 18.2156 20.8803 18.2872Z" fill="black"/>
<path d="M18.3646 17.64C18.2972 17.7187 18.2128 17.8032 18.1092 17.89C18.1758 17.8102 18.2617 17.728 18.3646 17.64Z" fill="black"/>
<path d="M21.637 5.08311C21.5726 5.05513 21.5006 5.01164 21.4295 4.94835C21.4968 4.9749 21.5631 5.02125 21.637 5.08311Z" fill="black"/>
<path d="M21.8175 17.5831C21.8477 17.5203 21.8946 17.4516 21.9615 17.3833C21.9323 17.4482 21.8833 17.5126 21.8175 17.5831Z" fill="black"/>
<path d="M21.4979 17.8657C21.5275 17.8257 21.5728 17.782 21.6359 17.7365C21.607 17.7772 21.5604 17.8196 21.4979 17.8657Z" fill="black"/>
<path d="M21.2816 18.0309C21.3243 17.9805 21.3836 17.9243 21.4619 17.8679C21.42 17.9201 21.3592 17.9726 21.2816 18.0309Z" fill="black"/>
<path d="M18.6972 17.3187C18.6808 17.3598 18.6485 17.4065 18.5974 17.4531C18.6128 17.4101 18.647 17.3672 18.6972 17.3187Z" fill="black"/>
<path d="M21.6912 17.7103C21.7068 17.6728 21.7367 17.6293 21.7846 17.5865C21.7702 17.6262 21.7379 17.6653 21.6912 17.7103Z" fill="black"/>
<path d="M18.4785 17.5354C18.468 17.564 18.4422 17.5972 18.3991 17.6322C18.409 17.6028 18.4361 17.5714 18.4785 17.5354Z" fill="black"/>
<path d="M18.5675 17.4538C18.5649 17.4738 18.5477 17.4987 18.5136 17.526C18.5154 17.5052 18.5342 17.4819 18.5675 17.4538Z" fill="black"/>
<path d="M16.899 6.86884C16.8746 6.87383 16.8414 6.86512 16.8036 6.8389C16.8294 6.83264 16.8598 6.84389 16.899 6.86884Z" fill="black"/>
<path d="M18.8606 17.1517C18.8601 17.175 18.8452 17.2035 18.8126 17.2313C18.812 17.2061 18.8291 17.1815 18.8606 17.1517Z" fill="black"/>
<path d="M18.0794 17.8901C18.0746 17.9098 18.0541 17.9328 18.0168 17.9576C18.0213 17.9374 18.0426 17.9154 18.0794 17.8901Z" fill="black"/>
<path d="M18.7805 17.2367C18.779 17.2562 18.7638 17.2815 18.7316 17.3092C18.732 17.2886 18.7494 17.2656 18.7805 17.2367Z" fill="black"/>
<path d="M17.6936 7.40853C17.6926 7.4084 17.6947 7.40865 17.6936 7.40853V7.40853Z" fill="black"/>
<path d="M21.2109 18.0774C21.2086 18.064 21.2206 18.0481 21.2487 18.0337C21.2516 18.0484 21.2385 18.0617 21.2109 18.0774Z" fill="black"/>
<path d="M21.4235 4.91634C21.4109 4.92314 21.392 4.91737 21.3698 4.89623C21.3835 4.88849 21.4004 4.89614 21.4235 4.91634Z" fill="black"/>
<path d="M21.6985 5.13371C21.6858 5.14008 21.667 5.1336 21.6447 5.11181C21.6584 5.10462 21.6754 5.11274 21.6985 5.13371Z" fill="black"/>
<path d="M8.38617 4.65321C8.40555 4.67443 8.41025 4.70018 8.41497 4.72593C8.38207 4.72447 8.34916 4.723 8.31626 4.72154C8.33468 4.70027 8.35311 4.67901 8.38617 4.65321Z" fill="black"/>
<path d="M8.13304 4.76901C8.13606 4.75925 8.14339 4.75599 8.1507 4.75272C8.14625 4.76032 8.14177 4.76791 8.13304 4.76901Z" fill="black"/>
<path d="M5.51759 6.88057C5.44873 6.88709 5.39618 6.88709 5.34367 6.88709C5.34245 6.86928 5.34122 6.85147 5.34 6.83366C5.41531 6.83366 5.49062 6.83366 5.56593 6.83366C5.56215 6.8414 5.55954 6.85003 5.55427 6.85663C5.54882 6.86346 5.54083 6.86832 5.51759 6.88057Z" fill="black"/>
<path d="M17.1991 7.14028C17.1968 7.14142 17.2013 7.13913 17.1991 7.14028V7.14028Z" fill="black"/>
</svg>
